<svg width="49" height="13" viewBox="0 0 49 13" fill="none" xmlns="http://www.w3.org/2000/svg">
<path d="M10.5527 11.1602V10.0117H11.707V11.1602H10.5527ZM10.5527 10.0117V8.83398H11.707V10.0117H10.5527ZM10.5527 8.83398V7.66211H11.707V8.83398H10.5527ZM10.5527 7.66211V6.48438H11.707V7.66211H10.5527ZM10.5527 6.48438V5.3125H11.707V6.48438H10.5527ZM10.5527 5.3125V4.13477H11.707V5.3125H10.5527ZM10.5527 4.13477V2.95703H11.707V4.13477H10.5527ZM10.5527 11.1602V12.3203H9.38086V11.1602H10.5527ZM9.38086 11.1602V10.0117H10.5527V11.1602H9.38086ZM9.38086 10.0117V8.83398H10.5527V10.0117H9.38086ZM9.38086 8.83398V7.66211H10.5527V8.83398H9.38086ZM9.38086 7.66211V6.48438H10.5527V7.66211H9.38086ZM9.38086 6.48438V5.3125H10.5527V6.48438H9.38086ZM9.38086 5.3125V4.13477H10.5527V5.3125H9.38086ZM9.38086 4.13477V2.95703H10.5527V4.13477H9.38086ZM9.38086 2.95703V1.80859H10.5527V2.95703H9.38086ZM8.20312 1.80859V0.630859H9.38086V1.80859H8.20312ZM9.38086 11.1602V12.3203H8.20312V11.1602H9.38086ZM8.20312 11.1602V10.0117H9.38086V11.1602H8.20312ZM8.20312 10.0117V8.83398H9.38086V10.0117H8.20312ZM8.20312 6.48438V5.3125H9.38086V6.48438H8.20312ZM8.20312 5.3125V4.13477H9.38086V5.3125H8.20312ZM8.20312 2.95703V1.80859H9.38086V2.95703H8.20312ZM7.03125 1.80859V0.630859H8.20312V1.80859H7.03125ZM8.20312 11.1602V12.3203H7.03125V11.1602H8.20312ZM7.03125 11.1602V10.0117H8.20312V11.1602H7.03125ZM7.03125 5.3125V4.13477H8.20312V5.3125H7.03125ZM5.85352 1.80859V0.630859H7.03125V1.80859H5.85352ZM7.03125 11.1602V12.3203H5.85352V11.1602H7.03125ZM5.85352 11.1602V10.0117H7.03125V11.1602H5.85352ZM5.85352 8.83398V7.66211H7.03125V8.83398H5.85352ZM5.85352 7.66211V6.48438H7.03125V7.66211H5.85352ZM5.85352 5.3125V4.13477H7.03125V5.3125H5.85352ZM5.85352 4.13477V2.95703H7.03125V4.13477H5.85352ZM4.67578 1.80859V0.630859H5.85352V1.80859H4.67578ZM5.85352 11.1602V12.3203H4.67578V11.1602H5.85352ZM4.67578 11.1602V10.0117H5.85352V11.1602H4.67578ZM4.67578 8.83398V7.66211H5.85352V8.83398H4.67578ZM4.67578 7.66211V6.48438H5.85352V7.66211H4.67578ZM4.67578 5.3125V4.13477H5.85352V5.3125H4.67578ZM4.67578 4.13477V2.95703H5.85352V4.13477H4.67578ZM3.52734 1.80859V0.630859H4.67578V1.80859H3.52734ZM4.67578 11.1602V12.3203H3.52734V11.1602H4.67578ZM3.52734 11.1602V10.0117H4.67578V11.1602H3.52734ZM3.52734 8.83398V7.66211H4.67578V8.83398H3.52734ZM3.52734 7.66211V6.48438H4.67578V7.66211H3.52734ZM3.52734 5.3125V4.13477H4.67578V5.3125H3.52734ZM3.52734 4.13477V2.95703H4.67578V4.13477H3.52734ZM2.34961 1.80859V0.630859H3.52734V1.80859H2.34961ZM3.52734 11.1602V12.3203H2.34961V11.1602H3.52734ZM2.34961 11.1602V10.0117H3.52734V11.1602H2.34961ZM2.34961 7.66211V6.48438H3.52734V7.66211H2.34961ZM1.17773 1.80859V0.630859H2.34961V1.80859H1.17773ZM1.17773 11.1602V10.0117H2.34961V11.1602H1.17773ZM1.17773 10.0117V8.83398H2.34961V10.0117H1.17773ZM1.17773 7.66211V6.48438H2.34961V7.66211H1.17773ZM1.17773 6.48438V5.3125H2.34961V6.48438H1.17773ZM1.17773 2.95703V1.80859H2.34961V2.95703H1.17773ZM0 10.0117V8.83398H1.17773V10.0117H0ZM0 8.83398V7.66211H1.17773V8.83398H0ZM0 7.66211V6.48438H1.17773V7.66211H0ZM0 6.48438V5.3125H1.17773V6.48438H0ZM0 5.3125V4.13477H1.17773V5.3125H0ZM0 4.13477V2.95703H1.17773V4.13477H0ZM0 2.95703V1.80859H1.17773V2.95703H0ZM22.2656 11.1602V12.3203H21.1113V11.1602H22.2656ZM21.1113 11.1602V10.0117H22.2656V11.1602H21.1113ZM21.1113 10.0117V8.83398H22.2656V10.0117H21.1113ZM21.1113 8.83398V7.66211H22.2656V8.83398H21.1113ZM21.1113 7.66211V6.48438H22.2656V7.66211H21.1113ZM21.1113 6.48438V5.3125H22.2656V6.48438H21.1113ZM21.1113 5.3125V4.13477H22.2656V5.3125H21.1113ZM21.1113 4.13477V2.95703H22.2656V4.13477H21.1113ZM21.1113 2.95703V1.80859H22.2656V2.95703H21.1113ZM19.9395 1.80859V0.630859H21.1113V1.80859H19.9395ZM21.1113 11.1602V12.3203H19.9395V11.1602H21.1113ZM19.9395 11.1602V10.0117H21.1113V11.1602H19.9395ZM19.9395 10.0117V8.83398H21.1113V10.0117H19.9395ZM19.9395 8.83398V7.66211H21.1113V8.83398H19.9395ZM19.9395 7.66211V6.48438H21.1113V7.66211H19.9395ZM19.9395 6.48438V5.3125H21.1113V6.48438H19.9395ZM19.9395 5.3125V4.13477H21.1113V5.3125H19.9395ZM19.9395 4.13477V2.95703H21.1113V4.13477H19.9395ZM19.9395 2.95703V1.80859H21.1113V2.95703H19.9395ZM18.7617 1.80859V0.630859H19.9395V1.80859H18.7617ZM19.9395 11.1602V12.3203H18.7617V11.1602H19.9395ZM18.7617 11.1602V10.0117H19.9395V11.1602H18.7617ZM17.5898 1.80859V0.630859H18.7617V1.80859H17.5898ZM18.7617 11.1602V12.3203H17.5898V11.1602H18.7617ZM17.5898 11.1602V10.0117H18.7617V11.1602H17.5898ZM16.4121 1.80859V0.630859H17.5898V1.80859H16.4121ZM16.4121 11.1602V10.0117H17.5898V11.1602H16.4121ZM16.4121 10.0117V8.83398H17.5898V10.0117H16.4121ZM16.4121 8.83398V7.66211H17.5898V8.83398H16.4121ZM16.4121 5.3125V4.13477H17.5898V5.3125H16.4121ZM16.4121 4.13477V2.95703H17.5898V4.13477H16.4121ZM16.4121 2.95703V1.80859H17.5898V2.95703H16.4121ZM16.4121 11.1602V12.3203H15.2344V11.1602H16.4121ZM15.2344 11.1602V10.0117H16.4121V11.1602H15.2344ZM15.2344 10.0117V8.83398H16.4121V10.0117H15.2344ZM15.2344 8.83398V7.66211H16.4121V8.83398H15.2344ZM15.2344 7.66211V6.48438H16.4121V7.66211H15.2344ZM15.2344 4.13477V2.95703H16.4121V4.13477H15.2344ZM15.2344 2.95703V1.80859H16.4121V2.95703H15.2344ZM14.0859 1.80859V0.630859H15.2344V1.80859H14.0859ZM15.2344 11.1602V12.3203H14.0859V11.1602H15.2344ZM14.0859 11.1602V10.0117H15.2344V11.1602H14.0859ZM14.0859 10.0117V8.83398H15.2344V10.0117H14.0859ZM14.0859 8.83398V7.66211H15.2344V8.83398H14.0859ZM14.0859 7.66211V6.48438H15.2344V7.66211H14.0859ZM14.0859 6.48438V5.3125H15.2344V6.48438H14.0859ZM14.0859 2.95703V1.80859H15.2344V2.95703H14.0859ZM12.9082 1.80859V0.630859H14.0859V1.80859H12.9082ZM14.0859 11.1602V12.3203H12.9082V11.1602H14.0859ZM12.9082 11.1602V10.0117H14.0859V11.1602H12.9082ZM11.7363 1.80859V0.630859H12.9082V1.80859H11.7363ZM12.9082 11.1602V12.3203H11.7363V11.1602H12.9082ZM11.7363 11.1602V10.0117H12.9082V11.1602H11.7363ZM10.5586 1.80859V0.630859H11.7363V1.80859H10.5586ZM10.5586 11.1602V10.0117H11.7363V11.1602H10.5586ZM10.5586 10.0117V8.83398H11.7363V10.0117H10.5586ZM10.5586 8.83398V7.66211H11.7363V8.83398H10.5586ZM10.5586 7.66211V6.48438H11.7363V7.66211H10.5586ZM10.5586 6.48438V5.3125H11.7363V6.48438H10.5586ZM10.5586 5.3125V4.13477H11.7363V5.3125H10.5586ZM10.5586 4.13477V2.95703H11.7363V4.13477H10.5586ZM10.5586 2.95703V1.80859H11.7363V2.95703H10.5586ZM26.9707 11.1602V12.3203H25.793V11.1602H26.9707ZM25.793 11.1602V10.0117H26.9707V11.1602H25.793ZM25.793 10.0117V8.83398H26.9707V10.0117H25.793ZM25.793 8.83398V7.66211H26.9707V8.83398H25.793ZM25.793 7.66211V6.48438H26.9707V7.66211H25.793ZM25.793 6.48438V5.3125H26.9707V6.48438H25.793ZM25.793 5.3125V4.13477H26.9707V5.3125H25.793ZM25.793 4.13477V2.95703H26.9707V4.13477H25.793ZM25.793 2.95703V1.80859H26.9707V2.95703H25.793ZM24.6445 1.80859V0.630859H25.793V1.80859H24.6445ZM25.793 11.1602V12.3203H24.6445V11.1602H25.793ZM24.6445 11.1602V10.0117H25.793V11.1602H24.6445ZM24.6445 10.0117V8.83398H25.793V10.0117H24.6445ZM24.6445 8.83398V7.66211H25.793V8.83398H24.6445ZM24.6445 7.66211V6.48438H25.793V7.66211H24.6445ZM24.6445 6.48438V5.3125H25.793V6.48438H24.6445ZM24.6445 5.3125V4.13477H25.793V5.3125H24.6445ZM24.6445 4.13477V2.95703H25.793V4.13477H24.6445ZM24.6445 2.95703V1.80859H25.793V2.95703H24.6445ZM23.4668 1.80859V0.630859H24.6445V1.80859H23.4668ZM24.6445 11.1602V12.3203H23.4668V11.1602H24.6445ZM23.4668 11.1602V10.0117H24.6445V11.1602H23.4668ZM22.2949 1.80859V0.630859H23.4668V1.80859H22.2949ZM23.4668 11.1602V12.3203H22.2949V11.1602H23.4668ZM22.2949 11.1602V10.0117H23.4668V11.1602H22.2949ZM21.1172 1.80859V0.630859H22.2949V1.80859H21.1172ZM21.1172 11.1602V10.0117H22.2949V11.1602H21.1172ZM21.1172 10.0117V8.83398H22.2949V10.0117H21.1172ZM21.1172 8.83398V7.66211H22.2949V8.83398H21.1172ZM21.1172 7.66211V6.48438H22.2949V7.66211H21.1172ZM21.1172 6.48438V5.3125H22.2949V6.48438H21.1172ZM21.1172 5.3125V4.13477H22.2949V5.3125H21.1172ZM21.1172 4.13477V2.95703H22.2949V4.13477H21.1172ZM21.1172 2.95703V1.80859H22.2949V2.95703H21.1172ZM36.3457 8.83398V7.66211H37.5V8.83398H36.3457ZM36.3457 7.66211V6.48438H37.5V7.66211H36.3457ZM36.3457 6.48438V5.3125H37.5V6.48438H36.3457ZM36.3457 5.3125V4.13477H37.5V5.3125H36.3457ZM36.3457 4.13477V2.95703H37.5V4.13477H36.3457ZM35.1738 10.0117V8.83398H36.3457V10.0117H35.1738ZM35.1738 8.83398V7.66211H36.3457V8.83398H35.1738ZM35.1738 7.66211V6.48438H36.3457V7.66211H35.1738ZM35.1738 6.48438V5.3125H36.3457V6.48438H35.1738ZM35.1738 5.3125V4.13477H36.3457V5.3125H35.1738ZM35.1738 4.13477V2.95703H36.3457V4.13477H35.1738ZM35.1738 2.95703V1.80859H36.3457V2.95703H35.1738ZM33.9961 1.80859V0.630859H35.1738V1.80859H33.9961ZM33.9961 10.0117V8.83398H35.1738V10.0117H33.9961ZM33.9961 8.83398V7.66211H35.1738V8.83398H33.9961ZM33.9961 7.66211V6.48438H35.1738V7.66211H33.9961ZM33.9961 2.95703V1.80859H35.1738V2.95703H33.9961ZM32.8242 1.80859V0.630859H33.9961V1.80859H32.8242ZM32.8242 10.0117V8.83398H33.9961V10.0117H32.8242ZM32.8242 8.83398V7.66211H33.9961V8.83398H32.8242ZM31.6465 1.80859V0.630859H32.8242V1.80859H31.6465ZM31.6465 10.0117V8.83398H32.8242V10.0117H31.6465ZM31.6465 8.83398V7.66211H32.8242V8.83398H31.6465ZM31.6465 6.48438V5.3125H32.8242V6.48438H31.6465ZM31.6465 5.3125V4.13477H32.8242V5.3125H31.6465ZM31.6465 4.13477V2.95703H32.8242V4.13477H31.6465ZM30.4688 1.80859V0.630859H31.6465V1.80859H30.4688ZM31.6465 11.1602V12.3203H30.4688V11.1602H31.6465ZM30.4688 11.1602V10.0117H31.6465V11.1602H30.4688ZM30.4688 10.0117V8.83398H31.6465V10.0117H30.4688ZM30.4688 8.83398V7.66211H31.6465V8.83398H30.4688ZM30.4688 6.48438V5.3125H31.6465V6.48438H30.4688ZM30.4688 5.3125V4.13477H31.6465V5.3125H30.4688ZM30.4688 4.13477V2.95703H31.6465V4.13477H30.4688ZM29.3203 1.80859V0.630859H30.4688V1.80859H29.3203ZM30.4688 11.1602V12.3203H29.3203V11.1602H30.4688ZM29.3203 11.1602V10.0117H30.4688V11.1602H29.3203ZM29.3203 10.0117V8.83398H30.4688V10.0117H29.3203ZM29.3203 8.83398V7.66211H30.4688V8.83398H29.3203ZM29.3203 6.48438V5.3125H30.4688V6.48438H29.3203ZM29.3203 5.3125V4.13477H30.4688V5.3125H29.3203ZM29.3203 4.13477V2.95703H30.4688V4.13477H29.3203ZM28.1426 1.80859V0.630859H29.3203V1.80859H28.1426ZM29.3203 11.1602V12.3203H28.1426V11.1602H29.3203ZM28.1426 11.1602V10.0117H29.3203V11.1602H28.1426ZM26.9707 1.80859V0.630859H28.1426V1.80859H26.9707ZM28.1426 11.1602V12.3203H26.9707V11.1602H28.1426ZM26.9707 11.1602V10.0117H28.1426V11.1602H26.9707ZM25.793 1.80859V0.630859H26.9707V1.80859H25.793ZM25.793 11.1602V10.0117H26.9707V11.1602H25.793ZM25.793 10.0117V8.83398H26.9707V10.0117H25.793ZM25.793 8.83398V7.66211H26.9707V8.83398H25.793ZM25.793 7.66211V6.48438H26.9707V7.66211H25.793ZM25.793 6.48438V5.3125H26.9707V6.48438H25.793ZM25.793 5.3125V4.13477H26.9707V5.3125H25.793ZM25.793 4.13477V2.95703H26.9707V4.13477H25.793ZM25.793 2.95703V1.80859H26.9707V2.95703H25.793ZM46.9043 11.1602V10.0117H48.0586V11.1602H46.9043ZM46.9043 10.0117V8.83398H48.0586V10.0117H46.9043ZM46.9043 8.83398V7.66211H48.0586V8.83398H46.9043ZM46.9043 7.66211V6.48438H48.0586V7.66211H46.9043ZM46.9043 6.48438V5.3125H48.0586V6.48438H46.9043ZM46.9043 5.3125V4.13477H48.0586V5.3125H46.9043ZM46.9043 4.13477V2.95703H48.0586V4.13477H46.9043ZM46.9043 11.1602V12.3203H45.7324V11.1602H46.9043ZM45.7324 11.1602V10.0117H46.9043V11.1602H45.7324ZM45.7324 10.0117V8.83398H46.9043V10.0117H45.7324ZM45.7324 8.83398V7.66211H46.9043V8.83398H45.7324ZM45.7324 7.66211V6.48438H46.9043V7.66211H45.7324ZM45.7324 6.48438V5.3125H46.9043V6.48438H45.7324ZM45.7324 5.3125V4.13477H46.9043V5.3125H45.7324ZM45.7324 4.13477V2.95703H46.9043V4.13477H45.7324ZM45.7324 2.95703V1.80859H46.9043V2.95703H45.7324ZM44.5547 1.80859V0.630859H45.7324V1.80859H44.5547ZM45.7324 11.1602V12.3203H44.5547V11.1602H45.7324ZM44.5547 11.1602V10.0117H45.7324V11.1602H44.5547ZM44.5547 10.0117V8.83398H45.7324V10.0117H44.5547ZM44.5547 6.48438V5.3125H45.7324V6.48438H44.5547ZM44.5547 5.3125V4.13477H45.7324V5.3125H44.5547ZM44.5547 2.95703V1.80859H45.7324V2.95703H44.5547ZM43.3828 1.80859V0.630859H44.5547V1.80859H43.3828ZM44.5547 11.1602V12.3203H43.3828V11.1602H44.5547ZM43.3828 11.1602V10.0117H44.5547V11.1602H43.3828ZM43.3828 5.3125V4.13477H44.5547V5.3125H43.3828ZM42.2051 1.80859V0.630859H43.3828V1.80859H42.2051ZM43.3828 11.1602V12.3203H42.2051V11.1602H43.3828ZM42.2051 11.1602V10.0117H43.3828V11.1602H42.2051ZM42.2051 8.83398V7.66211H43.3828V8.83398H42.2051ZM42.2051 7.66211V6.48438H43.3828V7.66211H42.2051ZM42.2051 5.3125V4.13477H43.3828V5.3125H42.2051ZM42.2051 4.13477V2.95703H43.3828V4.13477H42.2051ZM41.0273 1.80859V0.630859H42.2051V1.80859H41.0273ZM42.2051 11.1602V12.3203H41.0273V11.1602H42.2051ZM41.0273 11.1602V10.0117H42.2051V11.1602H41.0273ZM41.0273 8.83398V7.66211H42.2051V8.83398H41.0273ZM41.0273 7.66211V6.48438H42.2051V7.66211H41.0273ZM41.0273 5.3125V4.13477H42.2051V5.3125H41.0273ZM41.0273 4.13477V2.95703H42.2051V4.13477H41.0273ZM39.8789 1.80859V0.630859H41.0273V1.80859H39.8789ZM41.0273 11.1602V12.3203H39.8789V11.1602H41.0273ZM39.8789 11.1602V10.0117H41.0273V11.1602H39.8789ZM39.8789 8.83398V7.66211H41.0273V8.83398H39.8789ZM39.8789 7.66211V6.48438H41.0273V7.66211H39.8789ZM39.8789 5.3125V4.13477H41.0273V5.3125H39.8789ZM39.8789 4.13477V2.95703H41.0273V4.13477H39.8789ZM38.7012 1.80859V0.630859H39.8789V1.80859H38.7012ZM39.8789 11.1602V12.3203H38.7012V11.1602H39.8789ZM38.7012 11.1602V10.0117H39.8789V11.1602H38.7012ZM38.7012 7.66211V6.48438H39.8789V7.66211H38.7012ZM37.5293 1.80859V0.630859H38.7012V1.80859H37.5293ZM37.5293 11.1602V10.0117H38.7012V11.1602H37.5293ZM37.5293 10.0117V8.83398H38.7012V10.0117H37.5293ZM37.5293 7.66211V6.48438H38.7012V7.66211H37.5293ZM37.5293 6.48438V5.3125H38.7012V6.48438H37.5293ZM37.5293 2.95703V1.80859H38.7012V2.95703H37.5293ZM36.3516 10.0117V8.83398H37.5293V10.0117H36.3516ZM36.3516 8.83398V7.66211H37.5293V8.83398H36.3516ZM36.3516 7.66211V6.48438H37.5293V7.66211H36.3516ZM36.3516 6.48438V5.3125H37.5293V6.48438H36.3516ZM36.3516 5.3125V4.13477H37.5293V5.3125H36.3516ZM36.3516 4.13477V2.95703H37.5293V4.13477H36.3516ZM36.3516 2.95703V1.80859H37.5293V2.95703H36.3516Z" fill="black"/>
</svg>
